<svg xmlns="http://www.w3.org/2000/svg" xmlns:xlink="http://www.w3.org/1999/xlink" width="50px" height="50px" viewBox="0 0 50 50" version="1.1" class="group-hover:text-white h-10 inline-block mb-4 text-red-800 w-10" fill="currentColor">
<g id="surface1">
<path d="M 31.210938 36.394531 C 33.375 35.710938 38.46875 34.113281 39.625 33.859375 C 39.804688 33.820312 39.992188 33.789062 40.1875 33.769531 C 40.382812 33.746094 40.570312 33.738281 40.746094 33.738281 C 41.433594 33.738281 42.070312 33.878906 42.566406 34.125 C 43.171875 34.417969 43.59375 34.875 43.714844 35.429688 C 43.792969 35.78125 43.78125 36.316406 43.300781 36.875 C 43.046875 37.171875 42.644531 37.484375 42.015625 37.769531 L 41.996094 37.78125 L 31.046875 42.390625 L 31.011719 42.40625 C 25.714844 44.367188 25.238281 44.214844 21.433594 42.996094 C 20.777344 42.785156 20.015625 42.542969 19.066406 42.261719 C 18.429688 42.074219 17.816406 41.882812 17.253906 41.710938 C 13.605469 40.589844 12.167969 40.148438 7.644531 40.996094 L 7.175781 41.085938 L 6.25 41.257812 L 6.25 35.199219 L 12.945312 37.429688 C 14.574219 38.394531 22.132812 39.636719 23.308594 39.832031 C 25.238281 40.15625 28.875 40.640625 30.539062 39.269531 C 31.429688 38.53125 31.578125 37.425781 31.210938 36.394531 Z M 31.210938 36.394531 "/>
<path  d="M 6.25 34.375 L 6.25 34.011719 L 6.523438 34.058594 L 6.882812 33.992188 L 7.207031 33.929688 C 10.582031 33.273438 13 32.84375 15.460938 32.871094 C 17.933594 32.902344 20.382812 33.394531 23.765625 34.589844 C 24.484375 34.84375 25.390625 35.046875 26.3125 35.253906 C 27.785156 35.585938 29.289062 35.925781 30.332031 36.515625 C 30.371094 36.535156 30.410156 36.558594 30.445312 36.582031 C 30.808594 37.515625 31.339844 40.378906 23.4375 39.0625 C 20.675781 38.601562 18.65625 38.210938 17.1875 37.882812 L 16.539062 38.230469 L 17.210938 38.691406 L 17.1875 39.527344 L 6.25 37.519531 Z M 6.25 34.375 "/>
<path  d="M 14.0625 13.464844 L 36.765625 13.464844 C 37.351562 13.464844 37.894531 13.652344 38.300781 13.957031 C 38.769531 14.308594 39.058594 14.808594 39.058594 15.378906 L 39.058594 17.953125 C 39.058594 18.523438 38.769531 19.027344 38.300781 19.378906 C 37.894531 19.679688 37.351562 19.871094 36.765625 19.871094 L 26.195312 19.871094 L 26.195312 14.246094 L 24.632812 14.246094 L 24.632812 19.871094 L 14.0625 19.871094 C 13.476562 19.871094 12.929688 19.679688 12.527344 19.378906 C 12.058594 19.027344 11.765625 18.523438 11.765625 17.953125 L 11.765625 15.378906 C 11.765625 14.808594 12.058594 14.308594 12.527344 13.957031 C 12.929688 13.652344 13.476562 13.464844 14.0625 13.464844 Z M 14.0625 13.464844 "/>
<path  d="M 26.195312 20.652344 L 26.195312 31.976562 L 35.660156 31.976562 C 36.09375 31.976562 36.441406 31.628906 36.441406 31.195312 L 36.441406 20.652344 Z M 14.382812 20.652344 L 14.382812 31.195312 C 14.382812 31.628906 14.734375 31.976562 15.164062 31.976562 L 24.632812 31.976562 L 24.632812 20.652344 Z M 14.382812 20.652344 "/>
<path  d="M 22.207031 14.945312 C 21.691406 14.65625 21.203125 14.230469 20.777344 13.710938 C 20.367188 13.203125 20.007812 12.601562 19.738281 11.941406 C 19.257812 10.777344 19.109375 9.59375 19.253906 8.621094 C 19.421875 7.511719 19.972656 6.640625 20.863281 6.273438 C 21.753906 5.90625 22.757812 6.136719 23.65625 6.808594 C 24.449219 7.398438 25.175781 8.34375 25.65625 9.507812 C 26.015625 10.378906 26.195312 11.28125 26.191406 12.09375 C 26.1875 12.917969 26 13.667969 25.625 14.246094 L 25.40625 14.246094 L 24.289062 13.441406 C 24.515625 13.125 24.632812 12.648438 24.632812 12.09375 C 24.636719 11.476562 24.496094 10.78125 24.214844 10.097656 C 23.847656 9.203125 23.304688 8.488281 22.730469 8.058594 C 22.265625 7.714844 21.804688 7.570312 21.457031 7.714844 C 21.113281 7.855469 20.886719 8.28125 20.800781 8.855469 C 20.691406 9.566406 20.808594 10.457031 21.179688 11.351562 C 21.390625 11.867188 21.667969 12.335938 21.984375 12.726562 C 22.289062 13.101562 22.621094 13.398438 22.957031 13.582031 Z M 22.207031 14.945312 "/>
<path  d="M 28.015625 13.519531 C 28.363281 13.414062 28.703125 13.25 29.007812 13.042969 C 29.304688 12.84375 29.558594 12.609375 29.746094 12.359375 C 29.90625 12.148438 30.003906 11.945312 30.042969 11.761719 C 30.074219 11.625 30.074219 11.507812 30.039062 11.410156 C 30.011719 11.328125 29.957031 11.253906 29.875 11.191406 C 29.78125 11.121094 29.65625 11.066406 29.496094 11.03125 C 29.035156 10.925781 28.46875 11.011719 27.925781 11.234375 C 27.367188 11.460938 26.851562 11.828125 26.511719 12.28125 C 26.296875 12.570312 26.191406 12.839844 26.191406 13.070312 C 26.191406 13.21875 26.253906 13.347656 26.378906 13.441406 L 25.765625 14.246094 L 25.003906 14.246094 C 24.761719 13.90625 24.636719 13.507812 24.636719 13.074219 C 24.632812 12.515625 24.84375 11.914062 25.265625 11.347656 C 25.777344 10.667969 26.53125 10.121094 27.339844 9.792969 C 28.164062 9.457031 29.0625 9.335938 29.835938 9.511719 C 30.21875 9.597656 30.542969 9.746094 30.808594 9.945312 C 31.148438 10.203125 31.386719 10.535156 31.515625 10.914062 C 31.640625 11.28125 31.660156 11.683594 31.5625 12.101562 C 31.476562 12.496094 31.285156 12.898438 30.992188 13.292969 C 30.695312 13.691406 30.3125 14.046875 29.878906 14.335938 C 29.457031 14.621094 28.976562 14.855469 28.46875 15.007812 Z M 28.015625 13.519531 "/>
</g>
</svg>
