<svg xmlns="http://www.w3.org/2000/svg" viewBox="0 0 128 128" class="group-hover:text-white h-10 inline-block mb-4 text-red-800 w-10" fill="currentColor">
	<g id="house">
		<path id="roof" d="M103.2,72.2c-0.9,0-1.8-0.4-2.5-1.1L52.7,23.2L6.1,69.8c-1.4,1.4-3.7,1.4-5.1,0
			c-1.4-1.4-1.4-3.7,0-5.1L52.7,13l53,53c1.4,1.4,1.4,3.7,0,5.1C105,71.8,104.1,72.2,103.2,72.2z M86.1,74.9H61.4v20.3h24.7V74.9z
			 M75.6,78.4h7v13.1h-7V78.4z M65,78.4h7v13.1h-7V78.4z M44.9,74.9H20.2v20.3h24.7V74.9z M34.3,78.4h7v13.1h-7V78.4z M23.8,78.4h7
			v13.1h-7V78.4z"/>
		<path id="building"  d="M52.7,27.7L11.3,68.8V115h82.8V68.8L52.7,27.7z M46.9,97.1H18.2V72.9h28.6V97.1z M88.1,97.2
			H59.5V72.9h28.6V97.2z M103.6,34.5l-8.1-2.9l-8.4"/>
	</g>
</svg>
